<svg width="857" height="78" viewBox="0 0 857 78" fill="none" xmlns="http://www.w3.org/2000/svg">
<path fill-rule="evenodd" clip-rule="evenodd" d="M20.364 38.25L39.864 76.5L47.682 76.757L55.5 77.014L74.75 39.091C85.337 18.234 94 0.905 94 0.584C94 0.263 89.606 0 84.235 0H74.469L61.5 26C54.367 40.3 48.299 51.993 48.015 51.985C47.732 51.976 41.508 40.276 34.185 25.985L20.869 0H10.867H0.864014L20.364 38.25ZM104 0.473C104 0.773 108.502 10.015 114.005 21.01L124.01 41H121.016C118.276 41 117.682 41.677 114 49L109.978 57H121.279H132.58L137.5 67L142.42 77H152.21C157.595 77 161.991 76.662 161.981 76.25C161.97 75.838 159.761 71.355 157.072 66.289L152.182 57.078L160.052 56.789L167.922 56.5L162.974 48.75L158.026 41H151.033H144.039L133.77 20.75L123.5 0.5L113.75 0.214C108.388 0.056 104 0.173 104 0.473ZM184 38.5V77H192.982H201.963L202.232 54.139L202.5 31.278L217.804 53.139C226.221 65.163 233.421 74.994 233.804 74.987C234.187 74.98 241.475 64.972 250 52.746L265.5 30.519L265.768 53.759L266.037 77H275.03H284.024L283.762 38.75L283.5 0.5H274.093H264.685L250.306 21C242.398 32.275 235.349 42.079 234.642 42.786C233.594 43.834 230.513 39.992 218.003 22.036L202.649 0H193.324H184V38.5ZM378 8.976V17.953L395.25 18.226L412.5 18.5L412.765 47.75L413.03 77H421.5H429.97L430.235 47.75L430.5 18.5L447.75 18.226L465 17.953V8.976V0H421.5H378V8.976ZM473 0.473C473 0.773 477.502 10.015 483.005 21.01L493.01 41H490.016C487.276 41 486.682 41.677 483 49L478.978 57H490.279H501.58L506.5 67L511.42 77H521.21C526.595 77 530.991 76.662 530.981 76.25C530.97 75.838 528.761 71.355 526.072 66.289L521.182 57.078L529.052 56.789L536.922 56.5L531.974 48.75L527.026 41H520.033H513.039L502.77 20.75L492.5 0.5L482.75 0.214C477.387 0.056 473 0.173 473 0.473ZM552 38.5V77H590.5H629V68V59H599.5H570V29.5V0H561H552V38.5ZM642 38.5V77H651H660V38.5V0H651H642V38.5ZM687.153 19.336L669.152 38.671L688.336 57.836L707.519 77H719.903H732.287L713.143 58.406C702.615 48.179 694 39.377 694 38.846C694 38.315 700.835 30.595 709.189 21.69C717.543 12.786 725.502 4.263 726.876 2.75L729.374 0H717.264H705.154L687.153 19.336ZM742 38.5V77H751H760V38.5V0H751H742V38.5ZM790 1.537C783.789 3.465 778.185 8.407 775.381 14.429C773.17 19.177 773.019 20.672 773.01 37.884C773.004 48.973 773.461 57.805 774.161 60.142C775.663 65.157 781.118 71.482 786.357 74.284C790.359 76.425 791.631 76.51 823.75 76.8L857 77.1V68.05V59H826.223C799.985 59 795.117 58.77 793.223 57.443C791.076 55.94 791 55.312 791 39.134C791 26.251 791.328 21.934 792.418 20.441C793.762 18.602 795.491 18.485 825.418 18.21L857 17.919V8.96V0L825.75 0.0700001C801.969 0.123 793.425 0.473 790 1.537ZM803 39V48H824H845V39V30H824H803V39ZM297 42V51H331H365V42V33H331H297V42ZM78 59L68.989 77H78.91H88.831L97.916 59.554C102.912 49.958 107 41.858 107 41.554C107 41.249 102.502 41 97.005 41H87.011L78 59ZM447 59L437.989 77H447.91H457.831L466.916 59.554C471.912 49.958 476 41.858 476 41.554C476 41.249 471.502 41 466.005 41H456.011L447 59Z" fill="white"/>
</svg>
